<?xml version="1.0" encoding="UTF-8" standalone="no"?>
<!DOCTYPE svg PUBLIC "-//W3C//DTD SVG 1.1//EN"
 "http://www.w3.org/Graphics/SVG/1.1/DTD/svg11.dtd">
<!-- Generated by graphviz version 2.40.1 (20161225.0304)
 -->
<!-- Title: %3 Pages: 1 -->
<svg width="773pt" height="739pt"
 viewBox="0.00 0.00 772.58 739.12" xmlns="http://www.w3.org/2000/svg" xmlns:xlink="http://www.w3.org/1999/xlink">
<g id="graph0" class="graph" transform="scale(1 1) rotate(0) translate(4 735.1237)">
<title>%3</title>
<polygon fill="#333333" stroke="transparent" points="-4,4 -4,-735.1237 768.5751,-735.1237 768.5751,4 -4,4"/>
<text text-anchor="middle" x="382.2876" y="-7.2" font-family="Times,serif" font-size="16.00" fill="#ffffff">LAB Map</text>
<!-- SW9 -->
<g id="node1" class="node">
<title>SW9</title>
<polygon fill="none" stroke="#006699" points="74.5076,-317.0195 3.8303,-317.0195 -.1697,-313.0195 -.1697,-259.0195 70.5076,-259.0195 74.5076,-263.0195 74.5076,-317.0195"/>
<polyline fill="none" stroke="#006699" points="70.5076,-313.0195 -.1697,-313.0195 "/>
<polyline fill="none" stroke="#006699" points="70.5076,-313.0195 70.5076,-259.0195 "/>
<polyline fill="none" stroke="#006699" points="70.5076,-313.0195 74.5076,-317.0195 "/>
<text text-anchor="middle" x="37.1689" y="-283.8195" font-family="Helvetica,sans-Serif" font-size="14.00" fill="#ffffff">SW9</text>
</g>
<!-- SW5 -->
<g id="node3" class="node">
<title>SW5</title>
<polygon fill="none" stroke="#006699" points="276.9279,-294.6308 206.2506,-294.6308 202.2506,-290.6308 202.2506,-236.6308 272.9279,-236.6308 276.9279,-240.6308 276.9279,-294.6308"/>
<polyline fill="none" stroke="#006699" points="272.9279,-290.6308 202.2506,-290.6308 "/>
<polyline fill="none" stroke="#006699" points="272.9279,-290.6308 272.9279,-236.6308 "/>
<polyline fill="none" stroke="#006699" points="272.9279,-290.6308 276.9279,-294.6308 "/>
<text text-anchor="middle" x="239.5892" y="-261.4308" font-family="Helvetica,sans-Serif" font-size="14.00" fill="#ffffff">SW5</text>
</g>
<!-- SW9&#45;&#45;SW5 -->
<g id="edge5" class="edge">
<title>SW9&#45;&#45;SW5</title>
<path fill="none" stroke="#00ff00" stroke-dasharray="5,2" d="M74.4128,-289.2728C110.7324,-287.1223 165.6724,-281.07 202.0818,-275.2252"/>
<text text-anchor="middle" x="187.0793" y="-277.2252" font-family="Courier,monospace" font-size="10.00" fill="#000000">Et1/2</text>
<text text-anchor="middle" x="89.4152" y="-291.2728" font-family="Courier,monospace" font-size="10.00" fill="#000000">Et0/0</text>
</g>
<!-- SW9&#45;&#45;SW5 -->
<g id="edge6" class="edge">
<title>SW9&#45;&#45;SW5</title>
<path fill="none" stroke="#00ff00" stroke-dasharray="5,2" d="M74.6477,-278.4297C110.9825,-272.5954 165.7914,-266.5534 202.1221,-264.3908"/>
<text text-anchor="middle" x="187.1197" y="-266.3908" font-family="Courier,monospace" font-size="10.00" fill="#000000">Et1/0</text>
<text text-anchor="middle" x="89.6502" y="-280.4297" font-family="Courier,monospace" font-size="10.00" fill="#000000">Et0/2</text>
</g>
<!-- SW7 -->
<g id="node6" class="node">
<title>SW7</title>
<polygon fill="none" stroke="#006699" points="276.8994,-518.6269 206.2221,-518.6269 202.2221,-514.6269 202.2221,-460.6269 272.8994,-460.6269 276.8994,-464.6269 276.8994,-518.6269"/>
<polyline fill="none" stroke="#006699" points="272.8994,-514.6269 202.2221,-514.6269 "/>
<polyline fill="none" stroke="#006699" points="272.8994,-514.6269 272.8994,-460.6269 "/>
<polyline fill="none" stroke="#006699" points="272.8994,-514.6269 276.8994,-518.6269 "/>
<text text-anchor="middle" x="239.5608" y="-485.4269" font-family="Helvetica,sans-Serif" font-size="14.00" fill="#ffffff">SW7</text>
</g>
<!-- SW9&#45;&#45;SW7 -->
<g id="edge12" class="edge">
<title>SW9&#45;&#45;SW7</title>
<path fill="none" stroke="#00ff00" stroke-dasharray="5,2" d="M66.5985,-317.3349C105.0802,-355.6675 172.0877,-422.4154 210.4241,-460.6032"/>
<text text-anchor="middle" x="195.4217" y="-452.6032" font-family="Courier,monospace" font-size="10.00" fill="#000000">Et1/2</text>
<text text-anchor="middle" x="51.596" y="-319.3349" font-family="Courier,monospace" font-size="10.00" fill="#000000">Et0/1</text>
</g>
<!-- R2 -->
<g id="node2" class="node">
<title>R2</title>
<polygon fill="none" stroke="#006699" points="764.5235,-406.9755 706.7303,-406.9755 702.7303,-402.9755 702.7303,-348.9755 760.5235,-348.9755 764.5235,-352.9755 764.5235,-406.9755"/>
<polyline fill="none" stroke="#006699" points="760.5235,-402.9755 702.7303,-402.9755 "/>
<polyline fill="none" stroke="#006699" points="760.5235,-402.9755 760.5235,-348.9755 "/>
<polyline fill="none" stroke="#006699" points="760.5235,-402.9755 764.5235,-406.9755 "/>
<text text-anchor="middle" x="733.6269" y="-373.7755" font-family="Helvetica,sans-Serif" font-size="14.00" fill="#ffffff">R2</text>
</g>
<!-- SW8 -->
<g id="node4" class="node">
<title>SW8</title>
<polygon fill="none" stroke="#006699" points="556.7715,-529.8989 486.0942,-529.8989 482.0942,-525.8989 482.0942,-471.8989 552.7715,-471.8989 556.7715,-475.8989 556.7715,-529.8989"/>
<polyline fill="none" stroke="#006699" points="552.7715,-525.8989 482.0942,-525.8989 "/>
<polyline fill="none" stroke="#006699" points="552.7715,-525.8989 552.7715,-471.8989 "/>
<polyline fill="none" stroke="#006699" points="552.7715,-525.8989 556.7715,-529.8989 "/>
<text text-anchor="middle" x="519.4328" y="-496.6989" font-family="Helvetica,sans-Serif" font-size="14.00" fill="#ffffff">SW8</text>
</g>
<!-- R2&#45;&#45;SW8 -->
<g id="edge15" class="edge">
<title>R2&#45;&#45;SW8</title>
<path fill="none" stroke="#00ff00" stroke-dasharray="5,2" d="M702.4812,-395.8496C663.844,-418.0231 598.0344,-455.7904 556.7416,-479.4878"/>
<text text-anchor="middle" x="571.7441" y="-481.4878" font-family="Courier,monospace" font-size="10.00" fill="#000000">Et0/0</text>
<text text-anchor="middle" x="687.4788" y="-397.8496" font-family="Courier,monospace" font-size="10.00" fill="#000000">Et0/1</text>
</g>
<!-- SW6 -->
<g id="node9" class="node">
<title>SW6</title>
<polygon fill="none" stroke="#006699" points="556.9458,-283.5985 486.2685,-283.5985 482.2685,-279.5985 482.2685,-225.5985 552.9458,-225.5985 556.9458,-229.5985 556.9458,-283.5985"/>
<polyline fill="none" stroke="#006699" points="552.9458,-279.5985 482.2685,-279.5985 "/>
<polyline fill="none" stroke="#006699" points="552.9458,-279.5985 552.9458,-225.5985 "/>
<polyline fill="none" stroke="#006699" points="552.9458,-279.5985 556.9458,-283.5985 "/>
<text text-anchor="middle" x="519.6072" y="-250.3985" font-family="Helvetica,sans-Serif" font-size="14.00" fill="#ffffff">SW6</text>
</g>
<!-- R2&#45;&#45;SW6 -->
<g id="edge7" class="edge">
<title>R2&#45;&#45;SW6</title>
<path fill="none" stroke="#00ff00" stroke-dasharray="5,2" d="M702.5066,-360.0355C663.9008,-337.7802 598.1448,-299.8735 556.8856,-276.0886"/>
<text text-anchor="middle" x="571.888" y="-278.0886" font-family="Courier,monospace" font-size="10.00" fill="#000000">Et0/0</text>
<text text-anchor="middle" x="687.5042" y="-362.0355" font-family="Courier,monospace" font-size="10.00" fill="#000000">Et0/0</text>
</g>
<!-- SW8&#45;&#45;SW7 -->
<g id="edge13" class="edge">
<title>SW8&#45;&#45;SW7</title>
<path fill="none" stroke="#00ff00" stroke-dasharray="5,2" d="M481.9784,-499.3904C428.3563,-497.2307 330.2927,-493.2812 276.7934,-491.1265"/>
<text text-anchor="middle" x="291.7959" y="-493.1265" font-family="Courier,monospace" font-size="10.00" fill="#000000">Et0/3</text>
<text text-anchor="middle" x="466.976" y="-501.3904" font-family="Courier,monospace" font-size="10.00" fill="#000000">Et0/2</text>
</g>
<!-- SW8&#45;&#45;SW6 -->
<g id="edge9" class="edge">
<title>SW8&#45;&#45;SW6</title>
<path fill="none" stroke="#00ff00" stroke-dasharray="5,2" d="M519.4535,-471.6778C519.4871,-424.2751 519.553,-331.1598 519.5865,-283.7816"/>
<text text-anchor="middle" x="504.5841" y="-285.7816" font-family="Courier,monospace" font-size="10.00" fill="#000000">Et0/3</text>
<text text-anchor="middle" x="504.4511" y="-463.6778" font-family="Courier,monospace" font-size="10.00" fill="#000000">Et0/3</text>
</g>
<!-- R4 -->
<g id="node5" class="node">
<title>R4</title>
<polygon fill="none" stroke="#006699" points="68.0482,-496.35 10.2551,-496.35 6.2551,-492.35 6.2551,-438.35 64.0482,-438.35 68.0482,-442.35 68.0482,-496.35"/>
<polyline fill="none" stroke="#006699" points="64.0482,-492.35 6.2551,-492.35 "/>
<polyline fill="none" stroke="#006699" points="64.0482,-492.35 64.0482,-438.35 "/>
<polyline fill="none" stroke="#006699" points="64.0482,-492.35 68.0482,-496.35 "/>
<text text-anchor="middle" x="37.1516" y="-463.15" font-family="Helvetica,sans-Serif" font-size="14.00" fill="#ffffff">R4</text>
</g>
<!-- R4&#45;&#45;SW5 -->
<g id="edge4" class="edge">
<title>R4&#45;&#45;SW5</title>
<path fill="none" stroke="#00ff00" stroke-dasharray="5,2" d="M66.5878,-438.0183C105.0782,-399.6645 172.1009,-332.8796 210.446,-294.6706"/>
<text text-anchor="middle" x="195.4435" y="-296.6706" font-family="Courier,monospace" font-size="10.00" fill="#000000">Et0/0</text>
<text text-anchor="middle" x="51.5854" y="-430.0183" font-family="Courier,monospace" font-size="10.00" fill="#000000">Et0/0</text>
</g>
<!-- R4&#45;&#45;SW7 -->
<g id="edge11" class="edge">
<title>R4&#45;&#45;SW7</title>
<path fill="none" stroke="#00ff00" stroke-dasharray="5,2" d="M68.3345,-470.782C104.3748,-474.7485 163.6526,-481.2726 202.1455,-485.509"/>
<text text-anchor="middle" x="187.1431" y="-487.509" font-family="Courier,monospace" font-size="10.00" fill="#000000">Et0/0</text>
<text text-anchor="middle" x="83.3369" y="-472.782" font-family="Courier,monospace" font-size="10.00" fill="#000000">Et0/1</text>
</g>
<!-- SW7&#45;&#45;SW5 -->
<g id="edge2" class="edge">
<title>SW7&#45;&#45;SW5</title>
<path fill="none" stroke="#00ff00" stroke-dasharray="5,2" d="M239.5645,-460.3433C239.5699,-417.4146 239.5801,-337.8543 239.5855,-294.9216"/>
<text text-anchor="middle" x="254.5879" y="-296.9216" font-family="Courier,monospace" font-size="10.00" fill="#000000">Et0/3</text>
<text text-anchor="middle" x="254.5669" y="-452.3433" font-family="Courier,monospace" font-size="10.00" fill="#000000">Et0/2</text>
</g>
<!-- R3 -->
<g id="node7" class="node">
<title>R3</title>
<polygon fill="none" stroke="#006699" points="425.1944,-731.1237 367.4012,-731.1237 363.4012,-727.1237 363.4012,-673.1237 421.1944,-673.1237 425.1944,-677.1237 425.1944,-731.1237"/>
<polyline fill="none" stroke="#006699" points="421.1944,-727.1237 363.4012,-727.1237 "/>
<polyline fill="none" stroke="#006699" points="421.1944,-727.1237 421.1944,-673.1237 "/>
<polyline fill="none" stroke="#006699" points="421.1944,-727.1237 425.1944,-731.1237 "/>
<text text-anchor="middle" x="394.2978" y="-697.9237" font-family="Helvetica,sans-Serif" font-size="14.00" fill="#ffffff">R3</text>
</g>
<!-- R3&#45;&#45;SW8 -->
<g id="edge14" class="edge">
<title>R3&#45;&#45;SW8</title>
<path fill="none" stroke="#00ff00" stroke-dasharray="5,2" d="M412.4935,-672.8639C436.2183,-634.713 477.4796,-568.3622 501.2152,-530.194"/>
<text text-anchor="middle" x="486.2127" y="-532.194" font-family="Courier,monospace" font-size="10.00" fill="#000000">Et0/1</text>
<text text-anchor="middle" x="397.4911" y="-664.8639" font-family="Courier,monospace" font-size="10.00" fill="#000000">Et0/1</text>
</g>
<!-- R3&#45;&#45;SW7 -->
<g id="edge10" class="edge">
<title>R3&#45;&#45;SW7</title>
<path fill="none" stroke="#00ff00" stroke-dasharray="5,2" d="M373.1067,-673.0225C343.5576,-632.4433 290.2884,-559.2899 260.7436,-518.7168"/>
<text text-anchor="middle" x="245.7412" y="-520.7168" font-family="Courier,monospace" font-size="10.00" fill="#000000">Et0/1</text>
<text text-anchor="middle" x="358.1043" y="-665.0225" font-family="Courier,monospace" font-size="10.00" fill="#000000">Et0/0</text>
</g>
<!-- R1 -->
<g id="node8" class="node">
<title>R1</title>
<polygon fill="none" stroke="#006699" points="425.5292,-82 367.7361,-82 363.7361,-78 363.7361,-24 421.5292,-24 425.5292,-28 425.5292,-82"/>
<polyline fill="none" stroke="#006699" points="421.5292,-78 363.7361,-78 "/>
<polyline fill="none" stroke="#006699" points="421.5292,-78 421.5292,-24 "/>
<polyline fill="none" stroke="#006699" points="421.5292,-78 425.5292,-82 "/>
<text text-anchor="middle" x="394.6327" y="-48.8" font-family="Helvetica,sans-Serif" font-size="14.00" fill="#ffffff">R1</text>
</g>
<!-- R1&#45;&#45;SW5 -->
<g id="edge1" class="edge">
<title>R1&#45;&#45;SW5</title>
<path fill="none" stroke="#00ff00" stroke-dasharray="5,2" d="M373.3996,-82.1196C343.792,-122.7243 290.4173,-195.9238 260.814,-236.5225"/>
<text text-anchor="middle" x="245.8116" y="-228.5225" font-family="Courier,monospace" font-size="10.00" fill="#000000">Et0/1</text>
<text text-anchor="middle" x="358.3972" y="-84.1196" font-family="Courier,monospace" font-size="10.00" fill="#000000">Et0/0</text>
</g>
<!-- R1&#45;&#45;SW6 -->
<g id="edge8" class="edge">
<title>R1&#45;&#45;SW6</title>
<path fill="none" stroke="#00ff00" stroke-dasharray="5,2" d="M412.805,-82.3142C436.567,-120.6451 477.9434,-187.39 501.6156,-225.5761"/>
<text text-anchor="middle" x="486.6132" y="-217.5761" font-family="Courier,monospace" font-size="10.00" fill="#000000">Et0/1</text>
<text text-anchor="middle" x="397.8026" y="-84.3142" font-family="Courier,monospace" font-size="10.00" fill="#000000">Et0/1</text>
</g>
<!-- SW6&#45;&#45;SW5 -->
<g id="edge3" class="edge">
<title>SW6&#45;&#45;SW5</title>
<path fill="none" stroke="#00ff00" stroke-dasharray="5,2" d="M482.4229,-256.0635C428.8656,-258.1736 330.57,-262.0463 276.9272,-264.1597"/>
<text text-anchor="middle" x="291.9297" y="-266.1597" font-family="Courier,monospace" font-size="10.00" fill="#000000">Et0/2</text>
<text text-anchor="middle" x="467.4205" y="-258.0635" font-family="Courier,monospace" font-size="10.00" fill="#000000">Et0/2</text>
</g>
</g>
</svg>
