<?xml version="1.0" encoding="UTF-8" standalone="no"?>
<!DOCTYPE svg PUBLIC "-//W3C//DTD SVG 1.1//EN"
 "http://www.w3.org/Graphics/SVG/1.1/DTD/svg11.dtd">
<!-- Generated by graphviz version 2.40.1 (20161225.0304)
 -->
<!-- Title: %3 Pages: 1 -->
<svg width="786pt" height="682pt"
 viewBox="0.00 0.00 785.63 682.40" xmlns="http://www.w3.org/2000/svg" xmlns:xlink="http://www.w3.org/1999/xlink">
<g id="graph0" class="graph" transform="scale(1 1) rotate(0) translate(4 678.3975)">
<title>%3</title>
<polygon fill="#333333" stroke="transparent" points="-4,4 -4,-678.3975 781.6347,-678.3975 781.6347,4 -4,4"/>
<text text-anchor="middle" x="388.8174" y="-7.2" font-family="Times,serif" font-size="16.00" fill="#ffffff">LAB Map</text>
<!-- R2 -->
<g id="node1" class="node">
<title>R2</title>
<polygon fill="none" stroke="#006699" points="777.583,-378.0285 719.7899,-378.0285 715.7899,-374.0285 715.7899,-320.0285 773.583,-320.0285 777.583,-324.0285 777.583,-378.0285"/>
<polyline fill="none" stroke="#006699" points="773.583,-374.0285 715.7899,-374.0285 "/>
<polyline fill="none" stroke="#006699" points="773.583,-374.0285 773.583,-320.0285 "/>
<polyline fill="none" stroke="#006699" points="773.583,-374.0285 777.583,-378.0285 "/>
<text text-anchor="middle" x="746.6865" y="-344.8285" font-family="Helvetica,sans-Serif" font-size="14.00" fill="#ffffff">R2</text>
</g>
<!-- SW6 -->
<g id="node2" class="node">
<title>SW6</title>
<polygon fill="none" stroke="#006699" points="566.4954,-494.5464 495.818,-494.5464 491.818,-490.5464 491.818,-436.5464 562.4954,-436.5464 566.4954,-440.5464 566.4954,-494.5464"/>
<polyline fill="none" stroke="#006699" points="562.4954,-490.5464 491.818,-490.5464 "/>
<polyline fill="none" stroke="#006699" points="562.4954,-490.5464 562.4954,-436.5464 "/>
<polyline fill="none" stroke="#006699" points="562.4954,-490.5464 566.4954,-494.5464 "/>
<text text-anchor="middle" x="529.1567" y="-461.3464" font-family="Helvetica,sans-Serif" font-size="14.00" fill="#ffffff">SW6</text>
</g>
<!-- R2&#45;&#45;SW6 -->
<g id="edge6" class="edge">
<title>R2&#45;&#45;SW6</title>
<path fill="none" stroke="#00ff00" stroke-dasharray="5,2" d="M715.5198,-365.7227C676.1645,-386.803 608.5264,-423.0327 566.4644,-445.5629"/>
<text text-anchor="middle" x="581.4669" y="-447.5629" font-family="Courier,monospace" font-size="10.00" fill="#000000">Et0/0</text>
<text text-anchor="middle" x="700.5173" y="-367.7227" font-family="Courier,monospace" font-size="10.00" fill="#000000">Et0/0</text>
</g>
<!-- SW8 -->
<g id="node9" class="node">
<title>SW8</title>
<polygon fill="none" stroke="#006699" points="566.5201,-261.6471 495.8428,-261.6471 491.8428,-257.6471 491.8428,-203.6471 562.5201,-203.6471 566.5201,-207.6471 566.5201,-261.6471"/>
<polyline fill="none" stroke="#006699" points="562.5201,-257.6471 491.8428,-257.6471 "/>
<polyline fill="none" stroke="#006699" points="562.5201,-257.6471 562.5201,-203.6471 "/>
<polyline fill="none" stroke="#006699" points="562.5201,-257.6471 566.5201,-261.6471 "/>
<text text-anchor="middle" x="529.1814" y="-228.4471" font-family="Helvetica,sans-Serif" font-size="14.00" fill="#ffffff">SW8</text>
</g>
<!-- R2&#45;&#45;SW8 -->
<g id="edge14" class="edge">
<title>R2&#45;&#45;SW8</title>
<path fill="none" stroke="#00ff00" stroke-dasharray="5,2" d="M715.5233,-332.3539C676.1725,-311.2983 608.5422,-275.111 566.4849,-252.6073"/>
<text text-anchor="middle" x="581.4874" y="-254.6073" font-family="Courier,monospace" font-size="10.00" fill="#000000">Et0/0</text>
<text text-anchor="middle" x="700.5209" y="-334.3539" font-family="Courier,monospace" font-size="10.00" fill="#000000">Et0/1</text>
</g>
<!-- SW5 -->
<g id="node3" class="node">
<title>SW5</title>
<polygon fill="none" stroke="#006699" points="278.8307,-483.8888 208.1534,-483.8888 204.1534,-479.8888 204.1534,-425.8888 274.8307,-425.8888 278.8307,-429.8888 278.8307,-483.8888"/>
<polyline fill="none" stroke="#006699" points="274.8307,-479.8888 204.1534,-479.8888 "/>
<polyline fill="none" stroke="#006699" points="274.8307,-479.8888 274.8307,-425.8888 "/>
<polyline fill="none" stroke="#006699" points="274.8307,-479.8888 278.8307,-483.8888 "/>
<text text-anchor="middle" x="241.492" y="-450.6888" font-family="Helvetica,sans-Serif" font-size="14.00" fill="#ffffff">SW5</text>
</g>
<!-- SW6&#45;&#45;SW5 -->
<g id="edge3" class="edge">
<title>SW6&#45;&#45;SW5</title>
<path fill="none" stroke="#00ff00" stroke-dasharray="5,2" d="M491.8445,-464.1641C436.6607,-462.1196 333.8839,-458.3118 278.7381,-456.2687"/>
<text text-anchor="middle" x="293.7406" y="-458.2687" font-family="Courier,monospace" font-size="10.00" fill="#000000">Et0/2</text>
<text text-anchor="middle" x="476.842" y="-466.1641" font-family="Courier,monospace" font-size="10.00" fill="#000000">Et0/2</text>
</g>
<!-- SW9 -->
<g id="node4" class="node">
<title>SW9</title>
<polygon fill="none" stroke="#006699" points="74.5076,-285.6336 3.8303,-285.6336 -.1697,-281.6336 -.1697,-227.6336 70.5076,-227.6336 74.5076,-231.6336 74.5076,-285.6336"/>
<polyline fill="none" stroke="#006699" points="70.5076,-281.6336 -.1697,-281.6336 "/>
<polyline fill="none" stroke="#006699" points="70.5076,-281.6336 70.5076,-227.6336 "/>
<polyline fill="none" stroke="#006699" points="70.5076,-281.6336 74.5076,-285.6336 "/>
<text text-anchor="middle" x="37.1689" y="-252.4336" font-family="Helvetica,sans-Serif" font-size="14.00" fill="#ffffff">SW9</text>
</g>
<!-- SW9&#45;&#45;SW5 -->
<g id="edge5" class="edge">
<title>SW9&#45;&#45;SW5</title>
<path fill="none" stroke="#00ff00" stroke-dasharray="5,2" d="M67.3175,-285.8869C106.0592,-323.478 172.9125,-388.3458 211.5526,-425.8385"/>
<text text-anchor="middle" x="196.5502" y="-417.8385" font-family="Courier,monospace" font-size="10.00" fill="#000000">Et1/2</text>
<text text-anchor="middle" x="52.3151" y="-287.8869" font-family="Courier,monospace" font-size="10.00" fill="#000000">Et0/0</text>
</g>
<!-- SW7 -->
<g id="node7" class="node">
<title>SW7</title>
<polygon fill="none" stroke="#006699" points="278.9789,-272.4237 208.3015,-272.4237 204.3015,-268.4237 204.3015,-214.4237 274.9789,-214.4237 278.9789,-218.4237 278.9789,-272.4237"/>
<polyline fill="none" stroke="#006699" points="274.9789,-268.4237 204.3015,-268.4237 "/>
<polyline fill="none" stroke="#006699" points="274.9789,-268.4237 274.9789,-214.4237 "/>
<polyline fill="none" stroke="#006699" points="274.9789,-268.4237 278.9789,-272.4237 "/>
<text text-anchor="middle" x="241.6402" y="-239.2237" font-family="Helvetica,sans-Serif" font-size="14.00" fill="#ffffff">SW7</text>
</g>
<!-- SW9&#45;&#45;SW7 -->
<g id="edge11" class="edge">
<title>SW9&#45;&#45;SW7</title>
<path fill="none" stroke="#00ff00" stroke-dasharray="5,2" d="M74.6721,-254.2107C111.5653,-251.8272 167.5639,-248.2094 204.3748,-245.8312"/>
<text text-anchor="middle" x="189.3723" y="-247.8312" font-family="Courier,monospace" font-size="10.00" fill="#000000">Et1/2</text>
<text text-anchor="middle" x="89.6746" y="-256.2107" font-family="Courier,monospace" font-size="10.00" fill="#000000">Et0/1</text>
</g>
<!-- R1 -->
<g id="node5" class="node">
<title>R1</title>
<polygon fill="none" stroke="#006699" points="432.5204,-674.3975 374.7273,-674.3975 370.7273,-670.3975 370.7273,-616.3975 428.5204,-616.3975 432.5204,-620.3975 432.5204,-674.3975"/>
<polyline fill="none" stroke="#006699" points="428.5204,-670.3975 370.7273,-670.3975 "/>
<polyline fill="none" stroke="#006699" points="428.5204,-670.3975 428.5204,-616.3975 "/>
<polyline fill="none" stroke="#006699" points="428.5204,-670.3975 432.5204,-674.3975 "/>
<text text-anchor="middle" x="401.6239" y="-641.1975" font-family="Helvetica,sans-Serif" font-size="14.00" fill="#ffffff">R1</text>
</g>
<!-- R1&#45;&#45;SW6 -->
<g id="edge7" class="edge">
<title>R1&#45;&#45;SW6</title>
<path fill="none" stroke="#00ff00" stroke-dasharray="5,2" d="M422.398,-616.101C446.1136,-582.6566 484.6796,-528.2695 508.3914,-494.8304"/>
<text text-anchor="middle" x="493.3889" y="-496.8304" font-family="Courier,monospace" font-size="10.00" fill="#000000">Et0/1</text>
<text text-anchor="middle" x="407.3956" y="-608.101" font-family="Courier,monospace" font-size="10.00" fill="#000000">Et0/1</text>
</g>
<!-- R1&#45;&#45;SW5 -->
<g id="edge1" class="edge">
<title>R1&#45;&#45;SW5</title>
<path fill="none" stroke="#00ff00" stroke-dasharray="5,2" d="M376.9542,-616.048C346.7747,-580.1435 295.9991,-519.7358 265.927,-483.959"/>
<text text-anchor="middle" x="250.9245" y="-485.959" font-family="Courier,monospace" font-size="10.00" fill="#000000">Et0/1</text>
<text text-anchor="middle" x="361.9517" y="-608.048" font-family="Courier,monospace" font-size="10.00" fill="#000000">Et0/0</text>
</g>
<!-- R3 -->
<g id="node6" class="node">
<title>R3</title>
<polygon fill="none" stroke="#006699" points="432.3413,-82 374.5482,-82 370.5482,-78 370.5482,-24 428.3413,-24 432.3413,-28 432.3413,-82"/>
<polyline fill="none" stroke="#006699" points="428.3413,-78 370.5482,-78 "/>
<polyline fill="none" stroke="#006699" points="428.3413,-78 428.3413,-24 "/>
<polyline fill="none" stroke="#006699" points="428.3413,-78 432.3413,-82 "/>
<text text-anchor="middle" x="401.4447" y="-48.8" font-family="Helvetica,sans-Serif" font-size="14.00" fill="#ffffff">R3</text>
</g>
<!-- R3&#45;&#45;SW7 -->
<g id="edge9" class="edge">
<title>R3&#45;&#45;SW7</title>
<path fill="none" stroke="#00ff00" stroke-dasharray="5,2" d="M376.8255,-82.3364C346.7077,-118.2248 296.0359,-178.6056 266.0252,-214.3665"/>
<text text-anchor="middle" x="251.0227" y="-206.3665" font-family="Courier,monospace" font-size="10.00" fill="#000000">Et0/1</text>
<text text-anchor="middle" x="361.8231" y="-84.3364" font-family="Courier,monospace" font-size="10.00" fill="#000000">Et0/0</text>
</g>
<!-- R3&#45;&#45;SW8 -->
<g id="edge13" class="edge">
<title>R3&#45;&#45;SW8</title>
<path fill="none" stroke="#00ff00" stroke-dasharray="5,2" d="M422.2521,-82.2632C446.0056,-115.6697 484.6332,-169.9952 508.3829,-203.3964"/>
<text text-anchor="middle" x="493.3805" y="-195.3964" font-family="Courier,monospace" font-size="10.00" fill="#000000">Et0/1</text>
<text text-anchor="middle" x="407.2497" y="-84.2632" font-family="Courier,monospace" font-size="10.00" fill="#000000">Et0/1</text>
</g>
<!-- SW7&#45;&#45;SW5 -->
<g id="edge2" class="edge">
<title>SW7&#45;&#45;SW5</title>
<path fill="none" stroke="#00ff00" stroke-dasharray="5,2" d="M241.6196,-272.827C241.5913,-313.228 241.5407,-385.4658 241.5125,-425.7352"/>
<text text-anchor="middle" x="226.51" y="-417.7352" font-family="Courier,monospace" font-size="10.00" fill="#000000">Et0/3</text>
<text text-anchor="middle" x="226.6172" y="-274.827" font-family="Courier,monospace" font-size="10.00" fill="#000000">Et0/2</text>
</g>
<!-- R4 -->
<g id="node8" class="node">
<title>R4</title>
<polygon fill="none" stroke="#006699" points="68.2792,-470.6374 10.486,-470.6374 6.486,-466.6374 6.486,-412.6374 64.2792,-412.6374 68.2792,-416.6374 68.2792,-470.6374"/>
<polyline fill="none" stroke="#006699" points="64.2792,-466.6374 6.486,-466.6374 "/>
<polyline fill="none" stroke="#006699" points="64.2792,-466.6374 64.2792,-412.6374 "/>
<polyline fill="none" stroke="#006699" points="64.2792,-466.6374 68.2792,-470.6374 "/>
<text text-anchor="middle" x="37.3826" y="-437.4374" font-family="Helvetica,sans-Serif" font-size="14.00" fill="#ffffff">R4</text>
</g>
<!-- R4&#45;&#45;SW5 -->
<g id="edge4" class="edge">
<title>R4&#45;&#45;SW5</title>
<path fill="none" stroke="#00ff00" stroke-dasharray="5,2" d="M68.3824,-443.65C104.8499,-446.0176 165.3476,-449.9453 204.3055,-452.4745"/>
<text text-anchor="middle" x="189.3031" y="-454.4745" font-family="Courier,monospace" font-size="10.00" fill="#000000">Et0/0</text>
<text text-anchor="middle" x="83.3849" y="-445.65" font-family="Courier,monospace" font-size="10.00" fill="#000000">Et0/0</text>
</g>
<!-- R4&#45;&#45;SW7 -->
<g id="edge10" class="edge">
<title>R4&#45;&#45;SW7</title>
<path fill="none" stroke="#00ff00" stroke-dasharray="5,2" d="M67.5215,-412.3903C106.2507,-374.807 173.0826,-309.9527 211.7104,-272.4679"/>
<text text-anchor="middle" x="196.7079" y="-274.4679" font-family="Courier,monospace" font-size="10.00" fill="#000000">Et0/0</text>
<text text-anchor="middle" x="52.5191" y="-404.3903" font-family="Courier,monospace" font-size="10.00" fill="#000000">Et0/1</text>
</g>
<!-- SW8&#45;&#45;SW6 -->
<g id="edge8" class="edge">
<title>SW8&#45;&#45;SW6</title>
<path fill="none" stroke="#00ff00" stroke-dasharray="5,2" d="M529.1784,-261.6731C529.1736,-306.4247 529.1645,-391.7703 529.1598,-436.5214"/>
<text text-anchor="middle" x="514.1573" y="-428.5214" font-family="Courier,monospace" font-size="10.00" fill="#000000">Et0/3</text>
<text text-anchor="middle" x="514.1759" y="-263.6731" font-family="Courier,monospace" font-size="10.00" fill="#000000">Et0/3</text>
</g>
<!-- SW8&#45;&#45;SW7 -->
<g id="edge12" class="edge">
<title>SW8&#45;&#45;SW7</title>
<path fill="none" stroke="#00ff00" stroke-dasharray="5,2" d="M491.8852,-234.0449C436.7251,-236.1122 333.9924,-239.9625 278.8703,-242.0284"/>
<text text-anchor="middle" x="293.8728" y="-244.0284" font-family="Courier,monospace" font-size="10.00" fill="#000000">Et0/3</text>
<text text-anchor="middle" x="476.8828" y="-236.0449" font-family="Courier,monospace" font-size="10.00" fill="#000000">Et0/2</text>
</g>
</g>
</svg>
